name Walk5_EMG.mot
datacolumns 17
datarows 13
range 2.64800000 2.66000000
endheader
                time	            vasmed_r	            vaslat_r	            recfem_r	               gra_r	               sar_r	            tibant_r	           perlong_r	            addmag_r	           semimem_r	          bicfemlh_r	            gasmed_r	            gaslat_r	               sol_r	               tfl_r	              gmed_r	              gmax_r	
          2.64800000	          0.61484670	          0.79908981	          0.49886512	          0.24859565	          0.34729453	          0.10601832	          0.37219867	          0.80312404	          0.11471475	          0.16970765	          0.19717062	          0.54911005	          0.40296608	          0.31354134	          0.35285983	          0.46014291	
          2.64900000	          0.61600778	          0.78959244	          0.49657621	          0.25344369	          0.35168866	          0.10441733	          0.36337393	          0.80480983	          0.11561821	          0.16843178	          0.19831349	          0.54707626	          0.40539886	          0.31376460	          0.35406690	          0.45562905	
          2.65000000	          0.61676297	          0.77932971	          0.49393915	          0.25850026	          0.35551293	          0.10280616	          0.35512173	          0.80644124	          0.11698734	          0.16736535	          0.19964563	          0.54507055	          0.40747558	          0.31411077	          0.35571261	          0.45159172	
          2.65100000	          0.61708821	          0.76834423	          0.49100573	          0.26374448	          0.35875696	          0.10119295	          0.34752117	          0.80805068	          0.11879055	          0.16650407	          0.20116704	          0.54311231	          0.40919571	          0.31459366	          0.35776934	          0.44811873	
          2.65200000	          0.61696363	          0.75668004	          0.48782629	          0.26915501	          0.36141349	          0.09958710	          0.34065003	          0.80967069	          0.12099463	          0.16584211	          0.20287345	          0.54122125	          0.41056045	          0.31523044	          0.36021035	          0.44530200	
          2.65300000	          0.61637336	          0.74438155	          0.48444611	          0.27470949	          0.36347837	          0.09799893	          0.33458597	          0.81132615	          0.12356490	          0.16537159	          0.20475653	          0.53941969	          0.41157224	          0.31603901	          0.36300849	          0.44322795	
          2.65400000	          0.61530516	          0.73149306	          0.48090486	          0.28038438	          0.36495045	          0.09643962	          0.32940668	          0.81303312	          0.12646577	          0.16508238	          0.20680505	          0.53773276	          0.41223489	          0.31703523	          0.36613951	          0.44196929	
          2.65500000	          0.61375029	          0.71805942	          0.47724117	          0.28615482	          0.36583150	          0.09492216	          0.32518427	          0.81480411	          0.12966114	          0.16496217	          0.20900565	          0.53618532	          0.41255339	          0.31823009	          0.36958541	          0.44157990	
          2.65600000	          0.61170311	          0.70412702	          0.47350051	          0.29199428	          0.36612600	          0.09346202	          0.32198104	          0.81665347	          0.13311489	          0.16499686	          0.21134348	          0.53480005	          0.41253285	          0.31962766	          0.37333267	          0.44209466	
          2.65700000	          0.60916025	          0.68974346	          0.46973886	          0.29787443	          0.36584100	          0.09207658	          0.31984779	          0.81859837	          0.13679178	          0.16517193	          0.21380273	          0.53359898	          0.41217779	          0.32122480	          0.37736973	          0.44353396	
          2.65800000	          0.60612011	          0.67495609	          0.46601951	          0.30376541	          0.36498595	          0.09078471	          0.31882351	          0.82065804	          0.14065809	          0.16547388	          0.21636654	          0.53260375	          0.41149239	          0.32301318	          0.38168772	          0.44590916	
          2.65900000	          0.60258262	          0.65981232	          0.46240884	          0.30963613	          0.36357254	          0.08960702	          0.31893926	          0.82285313	          0.14468175	          0.16589026	          0.21901691	          0.53183238	          0.41048115	          0.32498248	          0.38628023	          0.44922603	
          2.66000000	          0.59854929	          0.64436166	          0.45897517	          0.31545503	          0.36161448	          0.08856494	          0.32022404	          0.82520526	          0.14883223	          0.16640870	          0.22173575	          0.53129736	          0.40914906	          0.32712295	          0.39114037	          0.45348580	
